<svg width="20" height="19" viewBox="0 0 20 19" fill="none" xmlns="http://www.w3.org/2000/svg">
<g clip-path="url(#clip0_1_67)">
<path d="M1 0.25C0.585786 0.25 0.25 0.585786 0.25 1C0.25 1.41421 0.585786 1.75 1 1.75V0.25ZM4.27273 1L5.00784 0.851295C4.93708 0.50149 4.62962 0.25 4.27273 0.25V1ZM6.46545 11.8395L7.20078 11.6919L7.20056 11.6908L6.46545 11.8395ZM8.10182 13.1429V12.3929C8.09708 12.3929 8.09234 12.3929 8.0876 12.393L8.10182 13.1429ZM16.0545 13.1429L16.0688 12.393C16.064 12.3929 16.0593 12.3929 16.0545 12.3929V13.1429ZM17.6909 11.8395L18.4263 11.9871L18.4274 11.9815L17.6909 11.8395ZM19 5.04762L19.7364 5.18956C19.7788 4.96983 19.7208 4.74266 19.5783 4.5701C19.4359 4.39754 19.2238 4.29762 19 4.29762V5.04762ZM5.09091 4.29762C4.6767 4.29762 4.34091 4.63341 4.34091 5.04762C4.34091 5.46183 4.6767 5.79762 5.09091 5.79762V4.29762ZM7.61364 17.1905C7.61364 17.2158 7.59065 17.25 7.54545 17.25V18.75C8.404 18.75 9.11364 18.0593 9.11364 17.1905H7.61364ZM7.54545 17.25C7.50026 17.25 7.47727 17.2158 7.47727 17.1905H5.97727C5.97727 18.0593 6.68691 18.75 7.54545 18.75V17.25ZM7.47727 17.1905C7.47727 17.1651 7.50026 17.131 7.54545 17.131V15.631C6.68691 15.631 5.97727 16.3217 5.97727 17.1905H7.47727ZM7.54545 17.131C7.59065 17.131 7.61364 17.1651 7.61364 17.1905H9.11364C9.11364 16.3217 8.404 15.631 7.54545 15.631V17.131ZM16.6136 17.1905C16.6136 17.2158 16.5907 17.25 16.5455 17.25V18.75C17.404 18.75 18.1136 18.0593 18.1136 17.1905H16.6136ZM16.5455 17.25C16.5003 17.25 16.4773 17.2158 16.4773 17.1905H14.9773C14.9773 18.0593 15.6869 18.75 16.5455 18.75V17.25ZM16.4773 17.1905C16.4773 17.1651 16.5003 17.131 16.5455 17.131V15.631C15.6869 15.631 14.9773 16.3217 14.9773 17.1905H16.4773ZM16.5455 17.131C16.5907 17.131 16.6136 17.1651 16.6136 17.1905H18.1136C18.1136 16.3217 17.404 15.631 16.5455 15.631V17.131ZM1 1.75H4.27273V0.25H1V1.75ZM3.53762 1.14871L5.73034 11.9882L7.20056 11.6908L5.00784 0.851295L3.53762 1.14871ZM5.73012 11.9871C5.83998 12.5344 6.14054 13.0242 6.57709 13.3719L7.51162 12.1986C7.34985 12.0698 7.24057 11.8901 7.20078 11.6919L5.73012 11.9871ZM6.57709 13.3719C7.01347 13.7195 7.55826 13.9033 8.11604 13.8927L8.0876 12.393C7.87743 12.397 7.67356 12.3276 7.51162 12.1986L6.57709 13.3719ZM8.10182 13.8929H16.0545V12.3929H8.10182V13.8929ZM16.0403 13.8927C16.5981 13.9033 17.1429 13.7195 17.5793 13.3719L16.6447 12.1986C16.4828 12.3276 16.2789 12.397 16.0688 12.393L16.0403 13.8927ZM17.5793 13.3719C18.0158 13.0242 18.3165 12.5344 18.4263 11.9871L16.9556 11.6919C16.9158 11.8901 16.8065 12.0698 16.6447 12.1986L17.5793 13.3719ZM18.4274 11.9815L19.7364 5.18956L18.2636 4.90567L16.9545 11.6976L18.4274 11.9815ZM19 4.29762H5.09091V5.79762H19V4.29762Z" fill="white"/>
</g>
<defs>
<clipPath id="clip0_1_67">
<rect width="20" height="19" fill="white"/>
</clipPath>
</defs>
</svg>
